<?xml version="1.0" encoding="UTF-8" standalone="no"?>
<svg
   viewBox="0 0 400 400"
   version="1.1"
   id="svg21"
   sodipodi:docname="tactical_helmet.svg"
   inkscape:version="1.3.2 (091e20e, 2023-11-25, custom)"
   xmlns:inkscape="http://www.inkscape.org/namespaces/inkscape"
   xmlns:sodipodi="http://sodipodi.sourceforge.net/DTD/sodipodi-0.dtd"
   xmlns="http://www.w3.org/2000/svg"
   xmlns:svg="http://www.w3.org/2000/svg">
  <defs
     id="defs21" />
  <sodipodi:namedview
     id="namedview21"
     pagecolor="#ffffff"
     bordercolor="#000000"
     borderopacity="0.25"
     inkscape:showpageshadow="2"
     inkscape:pageopacity="0.0"
     inkscape:pagecheckerboard="0"
     inkscape:deskcolor="#d1d1d1"
     inkscape:zoom="2.1525"
     inkscape:cx="200"
     inkscape:cy="200"
     inkscape:window-width="1920"
     inkscape:window-height="1057"
     inkscape:window-x="2552"
     inkscape:window-y="238"
     inkscape:window-maximized="1"
     inkscape:current-layer="svg21" />
  <!-- Open Tactical Helmet - Top Part Only (Above Strap) -->
  <path
     d="M80,160 C80,100 130,70 200,70 C270,70 320,100 320,160"
     fill="#5a5a40"
     stroke="#333"
     stroke-width="3"
     id="path1" />
  <!-- Helmet Camouflage Pattern -->
  <path
     d="m 105.11034,100.92915 c 20,11.14709 42.32288,0.46116 62.32288,-5.112386 20,-5.57355 37.67712,10.685936 57.67712,21.833026 20,11.14709 40,13.93387 60,8.36032 6.66667,-5.57355 13.33333,-2.78677 20,8.36032 -20,11.14709 -40,13.93387 -60,8.36032 -20,-5.57355 -40,-2.78677 -60,8.36032 -20,11.14709 -50.68525,13.93523 -70.68525,-2.78541 -6.66667,-11.14709 -2.64808,-30.65587 -9.31475,-47.37651"
     fill="#847840"
     stroke="none"
     id="path2"
     style="stroke-width:0.914348"
     sodipodi:nodetypes="cssccsscc" />
  <!-- Helmet Strap -->
  <path
     d="M80,160 L120,150 L280,150 L320,160"
     fill="none"
     stroke="#222"
     stroke-width="15"
     id="path3" />
  <rect
     x="300"
     y="145"
     width="20"
     height="12"
     rx="2"
     fill="#333"
     stroke="#222"
     stroke-width="1"
     id="rect3" />
  <!-- Helmet Edge at Strap -->
  <path
     d="M80,160 L320,160"
     fill="none"
     stroke="#554"
     stroke-width="4"
     id="path4" />
  <!-- Side Rail Mount Left -->
  <rect
     x="90"
     y="125"
     width="30"
     height="10"
     rx="2"
     fill="#333"
     stroke="#222"
     stroke-width="1"
     id="rect4" />
  <rect
     x="100"
     y="120"
     width="5"
     height="20"
     rx="1"
     fill="#222"
     id="rect5" />
  <rect
     x="115"
     y="120"
     width="5"
     height="20"
     rx="1"
     fill="#222"
     id="rect6" />
  <!-- Side Rail Mount Right -->
  <rect
     x="280"
     y="125"
     width="30"
     height="10"
     rx="2"
     fill="#333"
     stroke="#222"
     stroke-width="1"
     id="rect7" />
  <rect
     x="285"
     y="120"
     width="5"
     height="20"
     rx="1"
     fill="#222"
     id="rect8" />
  <rect
     x="300"
     y="120"
     width="5"
     height="20"
     rx="1"
     fill="#222"
     id="rect9" />
  <!-- Top Rail Mount -->
  <rect
     x="150"
     y="80"
     width="100"
     height="10"
     rx="2"
     fill="#333"
     stroke="#222"
     stroke-width="1"
     id="rect10" />
  <rect
     x="155"
     y="75"
     width="5"
     height="20"
     rx="1"
     fill="#222"
     id="rect11" />
  <rect
     x="175"
     y="75"
     width="5"
     height="20"
     rx="1"
     fill="#222"
     id="rect12" />
  <rect
     x="195"
     y="75"
     width="5"
     height="20"
     rx="1"
     fill="#222"
     id="rect13" />
  <rect
     x="215"
     y="75"
     width="5"
     height="20"
     rx="1"
     fill="#222"
     id="rect14" />
  <rect
     x="235"
     y="75"
     width="5"
     height="20"
     rx="1"
     fill="#222"
     id="rect15" />
  <!-- Ventilation Holes -->
  <circle
     cx="200"
     cy="100"
     r="4"
     fill="#222"
     id="circle15" />
  <circle
     cx="215"
     cy="100"
     r="4"
     fill="#222"
     id="circle16" />
  <circle
     cx="185"
     cy="100"
     r="4"
     fill="#222"
     id="circle17" />
  <circle
     cx="230"
     cy="105"
     r="4"
     fill="#222"
     id="circle18" />
  <circle
     cx="170"
     cy="105"
     r="4"
     fill="#222"
     id="circle19" />
  <circle
     cx="240"
     cy="115"
     r="4"
     fill="#222"
     id="circle20" />
  <circle
     cx="160"
     cy="115"
     r="4"
     fill="#222"
     id="circle21" />
</svg>
