<?xml version="1.0" encoding="UTF-8" standalone="no"?>
<svg
   viewBox="0 0 400 400"
   version="1.1"
   id="svg11"
   sodipodi:docname="VisorWithoutUI.svg"
   inkscape:version="1.3.2 (091e20e, 2023-11-25, custom)"
   xmlns:inkscape="http://www.inkscape.org/namespaces/inkscape"
   xmlns:sodipodi="http://sodipodi.sourceforge.net/DTD/sodipodi-0.dtd"
   xmlns="http://www.w3.org/2000/svg"
   xmlns:svg="http://www.w3.org/2000/svg">
  <defs
     id="defs11" />
  <sodipodi:namedview
     id="namedview11"
     pagecolor="#ffffff"
     bordercolor="#000000"
     borderopacity="0.25"
     inkscape:showpageshadow="2"
     inkscape:pageopacity="0.0"
     inkscape:pagecheckerboard="0"
     inkscape:deskcolor="#d1d1d1"
     inkscape:zoom="2.1525"
     inkscape:cx="200"
     inkscape:cy="200"
     inkscape:window-width="1920"
     inkscape:window-height="1057"
     inkscape:window-x="2552"
     inkscape:window-y="238"
     inkscape:window-maximized="1"
     inkscape:current-layer="svg11" />
  <!-- Shorter Visor -->
  <path
     d="M120,160 C120,140 150,120 200,120 C250,120 280,140 280,160 C280,170 275,200 270,210 C265,220 250,230 200,230 C150,230 135,220 130,210 C125,200 120,170 120,160 Z"
     fill="#a0dcff"
     fill-opacity="0.4"
     stroke="#555"
     stroke-width="3"
     id="path1" />
  <!-- Visor Frame -->
  <path
     d="M120,160 C120,140 150,120 200,120 C250,120 280,140 280,160"
     fill="none"
     stroke="#333"
     stroke-width="5"
     id="path2" />
  <path
     d="M120,160 L120,180"
     fill="none"
     stroke="#333"
     stroke-width="5"
     id="path3" />
  <path
     d="M280,160 L280,180"
     fill="none"
     stroke="#333"
     stroke-width="5"
     id="path4" />
  <!-- Side Visor Mounts -->
  <circle
     cx="120"
     cy="160"
     r="8"
     fill="#222"
     stroke="#111"
     stroke-width="2"
     id="circle4" />
  <circle
     cx="280"
     cy="160"
     r="8"
     fill="#222"
     stroke="#111"
     stroke-width="2"
     id="circle5" />
  <!-- Visor Edge Reinforcement -->
  <path
     d="M120,160 C120,170 125,200 130,210 C135,220 150,230 200,230 C250,230 265,220 270,210 C275,200 280,170 280,160"
     fill="none"
     stroke="#444"
     stroke-width="2"
     stroke-dasharray="4 2"
     id="path5" />
  <!-- Visor Bottom Edge -->
  <path
     d="M130,210 C135,220 150,230 200,230 C250,230 265,220 270,210"
     fill="none"
     stroke="#333"
     stroke-width="3"
     id="path6" />
  <!-- HUD Element - Updated Text -->
  <!-- Projection Scope - Moved to one side at 45 degrees -->
  <!-- Positioned to match right eye (250,170) -->
  <!-- Side Mounting Hardware -->
  <path
     d="M120,160 L140,140"
     fill="none"
     stroke="#333"
     stroke-width="3"
     id="path7" />
  <path
     d="M280,160 L260,140"
     fill="none"
     stroke="#333"
     stroke-width="3"
     id="path8" />
  <!-- Ventilation/Speaker Grille -->
</svg>
